<svg width="29" height="30" viewBox="0 0 29 30" fill="none" xmlns="http://www.w3.org/2000/svg">
<path fill-rule="evenodd" clip-rule="evenodd" d="M9.12677 5.03837C8.68274 4.05112 8.21506 4.03129 7.79239 4.01412C7.44678 3.99924 7.0512 4.00001 6.65638 4.00001C6.26118 4.00001 5.61878 4.14878 5.07557 4.74197C4.53198 5.33516 3 6.76949 3 9.6866C3 12.6041 5.12478 15.4228 5.42118 15.8188C5.71758 16.2143 9.52274 22.3919 15.5488 24.7685C20.5571 26.7437 21.576 26.3508 22.6632 26.252C23.7504 26.1532 26.1708 24.8177 26.6648 23.4333C27.1592 22.049 27.1592 20.8626 27.0108 20.6142C26.8624 20.3674 26.4672 20.219 25.8744 19.9226C25.2816 19.6262 22.3668 18.1915 21.8232 17.9939C21.2796 17.7959 20.8844 17.6975 20.4892 18.2911C20.0936 18.8839 18.9584 20.219 18.6124 20.6142C18.2664 21.0106 17.9204 21.0602 17.3276 20.7634C16.7348 20.4662 14.8252 19.8406 12.56 17.8207C10.7976 16.2494 9.60742 14.3085 9.26143 13.7149C8.91582 13.1221 9.25571 12.8292 9.52197 12.5053C10.0015 11.922 10.806 10.8734 11.0036 10.4782C11.2012 10.0822 11.1024 9.7362 10.9544 9.43941C10.806 9.14301 9.65358 6.21102 9.12677 5.03837Z" fill="black"/>
</svg>
