<svg width="21" height="28" viewBox="0 0 21 28" fill="none" xmlns="http://www.w3.org/2000/svg">
<path fill-rule="evenodd" clip-rule="evenodd" d="M10.2607 0C4.59389 0 0 4.46993 0 9.98387C0 13.3049 2.89343 18.6922 8.67485 26.0774L10.2607 28L11.2182 26.8347L11.9896 25.8696C18.0139 18.2638 20.5215 13.3867 20.5215 9.98387C20.5215 4.46993 15.9276 0 10.2607 0ZM10.2606 4.77732C13.0418 4.77732 15.2965 6.97114 15.2965 9.67736C15.2965 12.3836 13.0418 14.5774 10.2606 14.5774C7.47928 14.5774 5.22461 12.3836 5.22461 9.67736C5.22461 6.97114 7.47928 4.77732 10.2606 4.77732ZM6.73535 9.67764C6.73535 7.78329 8.31361 6.24762 10.2605 6.24762C12.2074 6.24762 13.7856 7.78329 13.7856 9.67764C13.7856 11.572 12.2074 13.1077 10.2605 13.1077C8.31361 13.1077 6.73535 11.572 6.73535 9.67764Z" fill="black"/>
</svg>
