<svg width="83" height="89" viewBox="0 0 83 89" fill="none" xmlns="http://www.w3.org/2000/svg">
<path d="M37.1233 4.06899C38.3857 3.3679 39.8059 3 41.25 3C42.6941 3 44.1143 3.3679 45.3767 4.06899L77.3155 21.8085C77.9777 22.1767 78.5293 22.7153 78.9134 23.3683C79.2975 24.0214 79.5 24.7653 79.5 25.523V60.5217C79.4996 62.0375 79.094 63.5256 78.325 64.8318C77.5561 66.138 76.4519 67.2148 75.1268 67.9507L45.3767 84.4832C44.1143 85.1843 42.6941 85.5522 41.25 85.5522C39.8059 85.5522 38.3857 85.1843 37.1233 84.4832L7.37325 67.9507C6.04876 67.2152 4.94493 66.139 4.17604 64.8336C3.40714 63.5282 3.00112 62.041 3 60.526V25.523C2.99997 24.7653 3.20248 24.0214 3.58656 23.3683C3.97065 22.7153 4.52234 22.1767 5.1845 21.8085L37.1275 4.06899H37.1233Z" stroke="white" stroke-width="6" stroke-linecap="round" stroke-linejoin="round"/>
<path d="M22.125 12.399L60.375 33.6491V48.5241" stroke="white" stroke-width="6" stroke-linecap="round" stroke-linejoin="round"/>
<path d="M15.75 45.6681L28.5 52.7741" stroke="white" stroke-width="6" stroke-linecap="round" stroke-linejoin="round"/>
<path d="M41.25 44.274V84.649M3 23.024L41.25 44.274L3 23.024ZM41.25 44.274L79.5 23.024L41.25 44.274Z" stroke="white" stroke-width="6" stroke-linejoin="round"/>
</svg>
