<svg width="30" height="24" viewBox="0 0 30 24" fill="none" xmlns="http://www.w3.org/2000/svg">
<path d="M26.8448 -0.000172559H12.4861C10.9365 -0.000172559 9.67676 1.26723 9.67676 2.82323V3.1371C9.67676 3.65661 10.0963 4.07823 10.6132 4.07823C11.1301 4.07823 11.5496 3.65661 11.5496 3.1371V2.82323C11.5496 2.3051 11.9692 1.8821 12.4861 1.8821H26.8448C27.3617 1.8821 27.7812 2.3051 27.7812 2.82323V13.4896C27.7812 14.0077 27.3617 14.4307 26.8448 14.4307H26.5327C26.0158 14.4307 25.5963 14.8523 25.5963 15.3719C25.5963 15.8914 26.0158 16.313 26.5327 16.313H26.8448C28.3944 16.313 29.6541 15.0456 29.6541 13.4896V2.82323C29.6541 1.26723 28.3944 -0.000172559 26.8448 -0.000172559Z" fill="black"/>
<path d="M2.74302 23.8995H22.2284C23.7405 23.8995 24.9717 22.6636 24.9717 21.1425V7.8341C24.9717 6.31305 23.7405 5.07715 22.2284 5.07715L2.74416 5.07715C1.2309 5.07715 -0.000244978 6.31305 -0.000244978 7.8341V21.1414C-0.000244978 22.6636 1.2309 23.8995 2.74302 23.8995ZM22.2284 6.95938C22.7081 6.95938 23.0988 7.3509 23.0988 7.8341V21.1414C23.0988 21.6246 22.7081 22.0161 22.2284 22.0161H2.74416C2.26474 22.0161 1.87402 21.6246 1.87402 21.1414V7.8341C1.87402 7.3509 2.26474 6.95938 2.74416 6.95938L22.2284 6.95938Z" fill="black"/>
<path d="M19.0096 21.3114C20.3868 21.3114 21.5068 20.1857 21.5068 18.8016C21.5068 17.4174 20.3868 16.292 19.0096 16.292C17.6324 16.292 16.5126 17.4174 16.5126 18.8016C16.5126 20.1857 17.6324 21.3114 19.0096 21.3114ZM19.0096 18.1743C19.3544 18.1743 19.634 18.4565 19.634 18.8016C19.634 19.1467 19.3544 19.4291 19.0096 19.4291C18.6651 19.4291 18.3855 19.1467 18.3855 18.8016C18.3855 18.4565 18.6651 18.1743 19.0096 18.1743Z" fill="black"/>
</svg>
