<svg width="28" height="30" viewBox="0 0 28 30" fill="none" xmlns="http://www.w3.org/2000/svg">
<path d="M12.3744 1.35633C12.7952 1.12263 13.2686 1 13.75 1C14.2314 1 14.7048 1.12263 15.1256 1.35633L25.7718 7.2695C25.9926 7.39224 26.1764 7.57175 26.3045 7.78945C26.4325 8.00715 26.5 8.25511 26.5 8.50766V20.1739C26.4999 20.6792 26.3647 21.1752 26.1083 21.6106C25.852 22.046 25.484 22.4049 25.0423 22.6502L15.1256 28.1611C14.7048 28.3948 14.2314 28.5174 13.75 28.5174C13.2686 28.5174 12.7952 28.3948 12.3744 28.1611L2.45775 22.6502C2.01625 22.4051 1.64831 22.0463 1.39201 21.6112C1.13571 21.1761 1.00037 20.6803 1 20.1753V8.50766C0.99999 8.25511 1.06749 8.00715 1.19552 7.78945C1.32355 7.57175 1.50745 7.39224 1.72817 7.2695L12.3758 1.35633H12.3744Z" stroke="black" stroke-width="2" stroke-linecap="round" stroke-linejoin="round"/>
<path d="M13.75 14.758V28.9247M1 7.67468L13.75 14.758L1 7.67468ZM13.75 14.758L26.5 7.67468L13.75 14.758Z" stroke="black" stroke-width="2" stroke-linejoin="round"/>
<path d="M7.375 11.2164L20.125 4.13306" stroke="black" stroke-width="2" stroke-linecap="round" stroke-linejoin="round"/>
<path d="M5.25 15.2227L9.5 17.5913" stroke="black" stroke-width="2" stroke-linecap="round" stroke-linejoin="round"/>
</svg>
