<svg width="118" height="92" viewBox="0 0 118 92" fill="none" xmlns="http://www.w3.org/2000/svg">
<path d="M83.3444 76.3341C83.2117 74.5918 81.8271 73.2072 80.0845 73.0742C78.1356 73.2228 76.6763 74.9229 76.8246 76.8716C76.9573 78.6139 78.3419 79.9985 80.0845 80.1315C82.0334 79.9832 83.4927 78.2828 83.3444 76.3341Z" fill="white"/>
<path d="M91.9769 73.3066C91.8442 71.5643 90.4596 70.1797 88.717 70.0468C86.7681 70.1953 85.3088 71.8955 85.4572 73.8441C85.5899 75.5864 86.9745 76.971 88.717 77.104C90.666 76.9557 92.1252 75.2553 91.9769 73.3066Z" fill="white"/>
<path d="M117.887 19.4799V19.3163C117.842 19.2025 117.787 19.0931 117.723 18.989L117.6 18.8254L117.355 18.5594L117.212 18.4367L116.946 18.314H116.844L72.4136 0.1492C71.9216 -0.0497332 71.3714 -0.0497332 70.8794 0.1492L26.5516 18.0071H26.4494L26.1834 18.1299L26.0403 18.2526L25.7948 18.5185L25.6721 18.6822C25.6079 18.7862 25.5531 18.8957 25.5084 19.0095V19.1731C25.4869 19.3429 25.4869 19.5147 25.5084 19.6845V36.0492H2.04558C0.915909 36.0492 0 36.9651 0 38.0947C0 39.2244 0.915909 40.1403 2.04558 40.1403V40.4062H25.2629V47.4021H17.3056C16.1759 47.4021 15.26 48.318 15.26 49.4477C15.26 50.5774 16.1759 51.4933 17.3056 51.4933H25.2629V58.4892H6.40267C5.273 58.4892 4.35709 59.4051 4.35709 60.5348C4.35709 61.6644 5.273 62.5804 6.40267 62.5804H25.2629V71.1309C25.267 71.9568 25.7674 72.6991 26.5312 73.0128L70.8794 91.4231C71.1011 91.511 71.3366 91.5593 71.5749 91.5662C71.8132 91.5593 72.0487 91.511 72.2704 91.4231L116.619 73.0128C117.382 72.6991 117.883 71.9568 117.887 71.1309V19.9913C117.908 19.8216 117.908 19.6497 117.887 19.4799ZM71.6363 4.30173L88.451 11.0317L50.1986 27.2122L32.7089 19.93L71.6363 4.30173ZM69.5293 86.4932L29.3541 69.7603V62.5599H37.8433C38.9729 62.5599 39.8888 61.644 39.8888 60.5143C39.8888 59.3846 38.9729 58.4687 37.8433 58.4687H29.3541V51.4728H48.7871C49.9168 51.4728 50.8327 50.5569 50.8327 49.4273C50.8327 48.2976 49.9168 47.3817 48.7871 47.3817H29.3541V40.4062H33.4453C34.5749 40.4062 35.4908 39.4903 35.4908 38.3607C35.4908 37.231 34.5749 36.3151 33.4453 36.3151H29.3541V22.9779L44.9823 29.4419L69.5293 39.6698V86.4932ZM71.6567 36.2128L55.4966 29.4419L93.7899 13.2L110.543 19.9504L86.1394 30.1783L71.6567 36.2128ZM73.6819 86.4932V39.6698L85.1985 34.8832L113.837 22.937L113.939 69.7603L73.6819 86.4932Z" fill="white"/>
</svg>
