<svg width="52" height="52" viewBox="0 0 52 52" fill="none" xmlns="http://www.w3.org/2000/svg">
<g clip-path="url(#clip0_296_112)">
<path d="M1.20801 52C0.916019 52 0.631962 51.8846 0.421299 51.6715C0.14359 51.3906 0.0364732 50.9828 0.140813 50.6015L3.52133 38.2569C1.41669 34.4511 0.307042 30.1458 0.308628 25.7755C0.314579 11.5627 11.8808 0 26.0924 0C32.9855 0.0027771 39.4625 2.68784 44.3307 7.55966C49.1982 12.4319 51.8777 18.9085 51.8757 25.7961C51.8694 40.0093 40.3032 51.5727 26.0924 51.5727C26.0924 51.5727 26.0817 51.5727 26.0813 51.5727C21.9303 51.5711 17.815 50.5595 14.1509 48.6433L1.4885 51.9639C1.39566 51.9881 1.30124 52 1.20801 52Z" fill="#E5E5E5"/>
<path d="M1.20801 50.8934L4.70875 38.1096C2.54935 34.3681 1.41351 30.1239 1.4151 25.7758C1.42065 12.1732 12.4902 1.10645 26.0924 1.10645C32.6932 1.10922 38.8889 3.67843 43.5481 8.34157C48.2069 13.0047 50.7718 19.2032 50.7694 25.7956C50.7634 39.3978 39.6923 50.4661 26.0924 50.4661C26.0916 50.4661 26.0928 50.4661 26.0924 50.4661H26.0817C21.9518 50.4645 17.894 49.4286 14.2898 47.4629L1.20801 50.8934ZM14.8956 42.9969L15.645 43.4408C18.7934 45.3094 22.4033 46.2977 26.0845 46.2997H26.0924C37.3968 46.2997 46.5978 37.1003 46.6025 25.794C46.6045 20.3148 44.4733 15.1625 40.6008 11.2869C36.728 7.41124 31.5788 5.27565 26.1 5.27327C14.7865 5.27327 5.58591 14.4714 5.58155 25.7773C5.57996 29.6518 6.66383 33.4247 8.7173 36.6897L9.20527 37.4657L7.13276 45.0321L14.8956 42.9969Z" fill="white"/>
<path d="M2.06641 50.0324L5.44613 37.6906C3.36093 34.0788 2.26477 29.981 2.26596 25.784C2.27112 12.6523 12.9578 1.96875 26.0883 1.96875C32.4613 1.97153 38.4428 4.45187 42.9397 8.95355C47.4378 13.4552 49.9134 19.4391 49.911 25.8026C49.9055 38.9347 39.2184 49.6194 26.0895 49.6194H26.0788C22.0921 49.6178 18.1744 48.6173 14.6951 46.7209L2.06641 50.0324Z" fill="#64B161"/>
<path d="M1.20801 50.8934L4.70875 38.1096C2.54935 34.3681 1.41351 30.1239 1.4151 25.7758C1.42065 12.1732 12.4902 1.10645 26.0924 1.10645C32.6932 1.10922 38.8889 3.67843 43.5481 8.34157C48.2069 13.0047 50.7718 19.2032 50.7694 25.7956C50.7634 39.3978 39.6923 50.4661 26.0924 50.4661C26.0916 50.4661 26.0928 50.4661 26.0924 50.4661H26.0817C21.9518 50.4645 17.894 49.4286 14.2898 47.4629L1.20801 50.8934ZM14.8956 42.9969L15.645 43.4408C18.7934 45.3094 22.4033 46.2977 26.0845 46.2997H26.0924C37.3968 46.2997 46.5978 37.1003 46.6025 25.794C46.6045 20.3148 44.4733 15.1625 40.6008 11.2869C36.728 7.41124 31.5788 5.27565 26.1 5.27327C14.7865 5.27327 5.58591 14.4714 5.58155 25.7773C5.57996 29.6518 6.66383 33.4247 8.7173 36.6897L9.20527 37.4657L7.13276 45.0321L14.8956 42.9969Z" fill="white"/>
<path fill-rule="evenodd" clip-rule="evenodd" d="M19.9246 15.4622C19.4628 14.4355 18.9764 14.4149 18.5368 14.397C18.1774 14.3815 17.766 14.3823 17.3554 14.3823C16.9444 14.3823 16.2763 14.5371 15.7113 15.154C15.146 15.7709 13.5527 17.2626 13.5527 20.2964C13.5527 23.3306 15.7625 26.262 16.0708 26.6738C16.379 27.0852 20.3364 33.5099 26.6035 35.9815C31.8121 38.0358 32.8718 37.6272 34.0025 37.5244C35.1331 37.4217 37.6504 36.0327 38.1641 34.593C38.6783 33.1532 38.6783 31.9194 38.524 31.6611C38.3696 31.4044 37.9586 31.2501 37.3421 30.9419C36.7256 30.6336 33.6942 29.1415 33.1289 28.936C32.5635 28.7301 32.1525 28.6277 31.7415 29.245C31.3301 29.8616 30.1494 31.2501 29.7896 31.6611C29.4298 32.0733 29.0699 32.1249 28.4534 31.8163C27.8369 31.5072 25.8509 30.8566 23.4951 28.7559C21.6622 27.1217 20.4245 25.1032 20.0646 24.4859C19.7052 23.8693 20.0587 23.5647 20.3356 23.2278C20.8343 22.6212 21.671 21.5306 21.8765 21.1196C22.082 20.7078 21.9792 20.348 21.8253 20.0393C21.671 19.7311 20.4725 16.6818 19.9246 15.4622Z" fill="white"/>
</g>
<defs>
<clipPath id="clip0_296_112">
<rect width="52" height="52" fill="white"/>
</clipPath>
</defs>
</svg>
