<svg width="140" height="138" viewBox="0 0 140 138" fill="none" xmlns="http://www.w3.org/2000/svg">
<g filter="url(#filter0_d_842_161)">
<path d="M116.428 6.28875C78.952 -4.44036 43.2658 0.551962 21.6073 6.56963C16.1742 8.07918 11.8008 12.1093 10.1158 17.4905C1.04654 46.453 2.91668 86.7802 10.1624 112.545C11.795 118.351 16.487 122.703 22.3294 124.198C59.7136 133.766 96.2292 129.862 117.219 124.186C122.567 122.739 126.796 118.704 128.521 113.439C139.744 79.1824 134.338 40.3928 128.31 18.2736C126.727 12.4642 122.216 7.94604 116.428 6.28875Z" fill="white"/>
</g>
<path d="M43.3685 66.5269H37.0246C35.9065 66.5269 35 67.4331 35 68.5515V93.1172C35 94.2353 35.9065 95.1418 37.0246 95.1418H43.3685C45.605 95.1418 47.4178 93.3287 47.4178 91.0926V70.5761C47.4178 68.3397 45.605 66.5269 43.3685 66.5269Z" fill="#0D5DA2"/>
<path d="M102.448 67.2963C100.788 66.0815 98.4796 66.3245 97.1029 67.8227L86.1699 81.4283C85.4005 82.2382 83.9427 82.7241 83.1734 82.7241H67.5026C66.3845 82.7241 65.478 81.8176 65.478 80.6995C65.478 79.5813 66.3843 78.6748 67.5026 78.6748H81.837C84.1735 78.6748 86.0646 76.6691 85.8729 74.2943C85.7022 72.1781 83.8777 70.5762 81.7546 70.5762H71.2278C70.8229 70.5762 70.256 70.3738 69.8914 70.0903C66.7662 67.3437 64.0255 65.7576 59.4847 65.7576C56.6582 65.7576 53.8673 66.653 51.4673 68.3502V93.8853C53.7723 94.6734 56.1952 95.1418 58.6347 95.1418H81.837C85.8057 95.1418 89.3488 93.0892 91.5554 90.1477C92.3053 89.0606 102.556 74.0573 103.298 73.0057C104.634 71.224 104.27 68.6324 102.448 67.2963Z" fill="#0D5DA2"/>
<rect x="62.1006" y="34" width="35" height="7" fill="#DB2726"/>
<rect x="65.1006" y="43" width="29" height="21" fill="#DB2726"/>
<rect x="68.1006" y="59" width="8" height="3" fill="white"/>
<rect x="68.1006" y="55" width="8" height="2" fill="white"/>
<rect x="75.1006" y="45" width="10" height="2" rx="1" fill="white"/>
<defs>
<filter id="filter0_d_842_161" x="0" y="0" width="139.048" height="138" filterUnits="userSpaceOnUse" color-interpolation-filters="sRGB">
<feFlood flood-opacity="0" result="BackgroundImageFix"/>
<feColorMatrix in="SourceAlpha" type="matrix" values="0 0 0 0 0 0 0 0 0 0 0 0 0 0 0 0 0 0 127 0" result="hardAlpha"/>
<feOffset dy="4"/>
<feGaussianBlur stdDeviation="2"/>
<feComposite in2="hardAlpha" operator="out"/>
<feColorMatrix type="matrix" values="0 0 0 0 0 0 0 0 0 0 0 0 0 0 0 0 0 0 0.25 0"/>
<feBlend mode="normal" in2="BackgroundImageFix" result="effect1_dropShadow_842_161"/>
<feBlend mode="normal" in="SourceGraphic" in2="effect1_dropShadow_842_161" result="shape"/>
</filter>
</defs>
</svg>
