<svg width="140" height="138" viewBox="0 0 140 138" fill="none" xmlns="http://www.w3.org/2000/svg">
<g filter="url(#filter0_d_842_58)">
<path d="M116.428 6.28875C78.952 -4.44036 43.2658 0.551962 21.6073 6.56963C16.1742 8.07918 11.8008 12.1093 10.1158 17.4905C1.04654 46.453 2.91668 86.7802 10.1624 112.545C11.795 118.351 16.487 122.703 22.3294 124.198C59.7136 133.766 96.2292 129.862 117.219 124.186C122.567 122.739 126.796 118.704 128.521 113.439C139.744 79.1824 134.338 40.3928 128.31 18.2736C126.727 12.4642 122.216 7.94604 116.428 6.28875Z" fill="white"/>
</g>
<path d="M53.5685 53.6475L40.7441 40.8215L55.1715 39.2185L53.5685 53.6475Z" fill="#0D5DA2"/>
<path d="M69.5003 33.2292C65.4746 33.2292 61.5542 33.983 57.8495 35.4725L60.3034 41.5819C63.2248 40.4084 66.3189 39.8126 69.5003 39.8126C83.113 39.8126 94.1878 50.8874 94.1878 64.5001C94.1878 78.1128 83.113 89.1876 69.5003 89.1876C55.8876 89.1876 44.8128 78.1128 44.8128 64.5001C44.8128 57.8888 47.3918 51.679 52.0742 47.0131L47.4281 42.3505C41.4948 48.2606 38.2295 56.1277 38.2295 64.5001C38.2295 81.7435 52.2569 95.7709 69.5003 95.7709C86.7437 95.7709 100.771 81.7435 100.771 64.5001C100.771 47.2567 86.7437 33.2292 69.5003 33.2292Z" fill="#0D5DA2"/>
<path d="M77.9927 63.936H72.5555V62.8576C73.9945 61.2287 76.1567 59.451 76.1567 58.2976C76.1567 57.9453 76.0383 57.1645 75.1271 57.1645C74.0249 57.1645 73.9779 58.3065 73.9779 58.4994H72.3978C72.3537 57.9911 72.7358 55.895 75.1545 55.895C77.7053 55.895 77.7368 57.7965 77.7368 58.1453C77.7368 59.8634 75.5241 61.5489 74.5825 62.6672H77.9927V63.936Z" fill="#DB2726"/>
<path d="M83.3638 60.95H84.2624V62.2195H83.3638V63.9353H81.7896V62.2195H78.5371L78.4663 61.228L81.7729 56.0032H83.3638V60.95ZM80.0351 60.95H81.7896V58.1499L80.0351 60.95Z" fill="#DB2726"/>
<ellipse cx="70.1692" cy="91.2796" rx="8.92656" ry="8.92656" fill="#DB2726"/>
<path d="M73.3174 87.8906V88.6475L70.5684 95H69.084L71.833 88.9893H68.293V87.8906H73.3174Z" fill="white"/>
<path d="M71.9674 70.0803C71.7655 69.9766 71.5385 69.9801 71.3196 70.0703C70.4849 70.4972 69.5681 70.7918 68.6084 70.9068C67.7023 71.0344 66.7534 70.9823 65.7884 70.7568C63.6172 70.2496 61.8403 68.9017 60.7516 67.1492C59.6628 65.3966 59.2417 63.2065 59.7489 61.0353C59.9618 60.1239 60.3293 59.277 60.7852 58.5355C61.2804 57.7466 61.8909 57.0695 62.6103 56.5308C62.9205 56.2923 62.967 55.851 62.7285 55.5408C62.5722 55.363 62.3703 55.2593 62.1434 55.2628C59.7209 55.347 57.418 56.2507 55.5716 57.7415C53.785 59.218 52.4611 61.2549 51.8975 63.6673C51.215 66.589 51.7745 69.5182 53.2535 71.899C54.7326 74.2798 57.0839 76.0729 60.0324 76.7617C62.4984 77.3378 64.9772 77.0123 67.1318 76.0175C69.3194 75.0021 71.1418 73.2513 72.2558 71.024C72.4506 70.6738 72.3239 70.2484 71.9674 70.0803Z" fill="#0D5DA2"/>
<defs>
<filter id="filter0_d_842_58" x="0" y="0" width="139.048" height="138" filterUnits="userSpaceOnUse" color-interpolation-filters="sRGB">
<feFlood flood-opacity="0" result="BackgroundImageFix"/>
<feColorMatrix in="SourceAlpha" type="matrix" values="0 0 0 0 0 0 0 0 0 0 0 0 0 0 0 0 0 0 127 0" result="hardAlpha"/>
<feOffset dy="4"/>
<feGaussianBlur stdDeviation="2"/>
<feComposite in2="hardAlpha" operator="out"/>
<feColorMatrix type="matrix" values="0 0 0 0 0 0 0 0 0 0 0 0 0 0 0 0 0 0 0.25 0"/>
<feBlend mode="normal" in2="BackgroundImageFix" result="effect1_dropShadow_842_58"/>
<feBlend mode="normal" in="SourceGraphic" in2="effect1_dropShadow_842_58" result="shape"/>
</filter>
</defs>
</svg>
