<svg width="140" height="138" viewBox="0 0 140 138" fill="none" xmlns="http://www.w3.org/2000/svg">
<g filter="url(#filter0_d_842_31)">
<path d="M116.428 6.28875C78.952 -4.44036 43.2658 0.551962 21.6073 6.56963C16.1742 8.07918 11.8008 12.1093 10.1158 17.4905C1.04654 46.453 2.91668 86.7802 10.1624 112.545C11.795 118.351 16.487 122.703 22.3294 124.198C59.7136 133.766 96.2292 129.862 117.219 124.186C122.567 122.739 126.796 118.704 128.521 113.439C139.744 79.1824 134.338 40.3928 128.31 18.2736C126.727 12.4642 122.216 7.94604 116.428 6.28875Z" fill="white"/>
</g>
<path d="M45.1102 65.2566H38.9596C37.8755 65.2566 36.9966 66.1352 36.9966 67.2196V91.037C36.9966 92.1211 37.8755 93 38.9596 93H45.1102C47.2785 93 49.0362 91.2421 49.0362 89.074V69.1825C49.0362 67.0142 47.2785 65.2566 45.1102 65.2566Z" fill="#0D5DA2"/>
<path d="M70.7017 45.6267C71.0606 53.8244 73.501 61.3305 74.5555 61.3305C75.61 61.3305 78.0504 53.8244 78.4093 45.6267H70.7017Z" fill="#DB2726"/>
<path d="M79.3696 26.7483C81.1392 30.7495 82.1483 36.6389 82.3602 41.7009H92.0228C91.2153 34.5238 86.1459 28.684 79.3696 26.7483Z" fill="#DB2726"/>
<path d="M74.5555 25.9971C73.501 25.9971 71.0606 33.5032 70.7017 41.7009H78.4093C78.0504 33.5032 75.6101 25.9971 74.5555 25.9971Z" fill="#DB2726"/>
<path d="M82.3602 45.6267C82.1483 50.6887 81.1393 56.5781 79.3696 60.5793C86.1458 58.6437 91.2153 52.8039 92.0228 45.6267H82.3602Z" fill="#DB2726"/>
<path d="M66.7491 45.6267H57.0864C57.894 52.8039 62.9633 58.6436 69.7396 60.5793C67.9701 56.5781 66.961 50.6887 66.7491 45.6267Z" fill="#DB2726"/>
<path d="M57.0864 41.7009H66.7491C66.961 36.6389 67.9699 30.7495 69.7396 26.7483C62.9634 28.684 57.894 34.5238 57.0864 41.7009Z" fill="#DB2726"/>
<path d="M102.389 66.0029C100.779 64.8251 98.5417 65.0606 97.207 66.5132L86.6069 79.7044C85.861 80.4896 84.4477 80.9607 83.7017 80.9607H68.5083C67.4242 80.9607 66.5453 80.0818 66.5453 78.9977C66.5453 77.9137 67.4241 77.0348 68.5083 77.0348H82.406C84.6715 77.0348 86.5049 75.0901 86.319 72.7877C86.1535 70.736 84.3846 69.1829 82.3262 69.1829H72.1201C71.7275 69.1829 71.1778 68.9866 70.8244 68.7118C67.7943 66.0488 65.1371 64.511 60.7347 64.511C57.9942 64.511 55.2883 65.3791 52.9614 67.0246V91.7819C55.1962 92.5461 57.5454 93.0002 59.9105 93.0002H82.406C86.2539 93.0002 89.6891 91.0101 91.8285 88.1582C92.5555 87.1042 102.494 72.5579 103.214 71.5383C104.509 69.8109 104.156 67.2983 102.389 66.0029Z" fill="#0D5DA2"/>
<defs>
<filter id="filter0_d_842_31" x="0" y="0" width="139.048" height="138" filterUnits="userSpaceOnUse" color-interpolation-filters="sRGB">
<feFlood flood-opacity="0" result="BackgroundImageFix"/>
<feColorMatrix in="SourceAlpha" type="matrix" values="0 0 0 0 0 0 0 0 0 0 0 0 0 0 0 0 0 0 127 0" result="hardAlpha"/>
<feOffset dy="4"/>
<feGaussianBlur stdDeviation="2"/>
<feComposite in2="hardAlpha" operator="out"/>
<feColorMatrix type="matrix" values="0 0 0 0 0 0 0 0 0 0 0 0 0 0 0 0 0 0 0.25 0"/>
<feBlend mode="normal" in2="BackgroundImageFix" result="effect1_dropShadow_842_31"/>
<feBlend mode="normal" in="SourceGraphic" in2="effect1_dropShadow_842_31" result="shape"/>
</filter>
</defs>
</svg>
