<svg width="140" height="138" viewBox="0 0 140 138" fill="none" xmlns="http://www.w3.org/2000/svg">
<g filter="url(#filter0_d_842_162)">
<path d="M116.428 6.28875C78.952 -4.44036 43.2658 0.551962 21.6073 6.56963C16.1742 8.07918 11.8008 12.1093 10.1158 17.4905C1.04654 46.453 2.91668 86.7802 10.1624 112.545C11.795 118.351 16.487 122.703 22.3294 124.198C59.7136 133.766 96.2292 129.862 117.219 124.186C122.567 122.739 126.796 118.704 128.521 113.439C139.744 79.1824 134.338 40.3928 128.31 18.2736C126.727 12.4642 122.216 7.94604 116.428 6.28875Z" fill="white"/>
</g>
<g clip-path="url(#clip0_842_162)">
<path d="M88.211 93.5042H43.741C41.1226 93.5042 39 91.3905 39 88.7831V44.4822H92.9521V88.7831C92.9521 91.3905 90.8295 93.5042 88.211 93.5042V93.5042Z" fill="#0D5DA2"/>
<path d="M92.9521 66.0249C92.5267 66.0002 92.0998 65.9845 91.6687 65.9887C81.1796 66.0799 72.7509 74.6204 72.8425 85.0654C72.8694 88.1059 73.6185 90.9702 74.9219 93.5043H88.2116C90.8301 93.5043 92.9526 91.3906 92.9526 88.7832V66.0249H92.9521Z" fill="white"/>
<path d="M54.285 87.2929L51.8219 82.8989C51.5766 82.4617 50.9143 82.4617 50.6695 82.8989L48.2064 87.2929C47.9758 87.7029 48.2911 88.1977 48.7823 88.1977H49.923V89.7096C49.923 90.0498 50.2147 90.3255 50.5748 90.3255H51.9172C52.2772 90.3255 52.5689 90.0498 52.5689 89.7096V88.1977H53.7096C54.2008 88.1977 54.5156 87.7029 54.285 87.2929Z" fill="white"/>
<path d="M71.899 44.4822H60.0518V53.928H60.4908C60.5761 53.5438 60.9193 53.2565 61.3305 53.2565C61.7416 53.2565 62.0843 53.5438 62.1701 53.928H62.8134C62.8987 53.5438 63.2419 53.2565 63.6531 53.2565C64.0642 53.2565 64.4069 53.5438 64.4927 53.928H65.1355C65.2213 53.5438 65.564 53.2565 65.9757 53.2565C66.3868 53.2565 66.7295 53.5438 66.8153 53.928H67.4581C67.5439 53.5438 67.8866 53.2565 68.2977 53.2565C68.7094 53.2565 69.0521 53.5438 69.1379 53.928H69.7807C69.8665 53.5438 70.2092 53.2565 70.6203 53.2565C71.032 53.2565 71.3747 53.5438 71.4605 53.928H71.899V44.4822Z" fill="white"/>
<path d="M47.6361 39H84.4139C86.5038 39 88.3716 39.52 89.0939 40.3022L92.9526 44.4833H39L42.9556 40.3022C43.6773 39.5195 45.5461 39 47.6361 39Z" fill="#0D5DA2"/>
<path d="M61.1573 39H70.7878L71.887 44.4833H60.0645L61.1573 39Z" fill="white"/>
<path d="M60.1826 93.5043H71.7688V84.5371H71.3397C71.2566 84.9009 70.9212 85.1746 70.5185 85.1746C70.1163 85.1746 69.781 84.902 69.6978 84.5371H69.0692C68.9855 84.9009 68.6502 85.1746 68.248 85.1746C67.8458 85.1746 67.5105 84.902 67.4268 84.5371H66.7982C66.7145 84.9009 66.3792 85.1746 65.977 85.1746C65.5748 85.1746 65.2395 84.902 65.1558 84.5371H64.5272C64.4441 84.9009 64.1087 85.1746 63.7065 85.1746C63.3038 85.1746 62.9685 84.902 62.8853 84.5371H62.2567C62.173 84.9009 61.8377 85.1746 61.4355 85.1746C61.0333 85.1746 60.698 84.902 60.6143 84.5371H60.1852V93.5043H60.1826Z" fill="white"/>
<path d="M54.4966 52.7806H46.7287C46.4707 52.7806 46.2617 52.5725 46.2617 52.3151C46.2617 52.0582 46.4707 51.8501 46.7287 51.8501H54.4966C54.7551 51.8501 54.9641 52.0582 54.9641 52.3151C54.9641 52.5725 54.7551 52.7806 54.4966 52.7806Z" fill="white"/>
<path d="M54.4966 55.2459H46.7287C46.4707 55.2459 46.2617 55.0378 46.2617 54.7804C46.2617 54.5235 46.4707 54.3154 46.7287 54.3154H54.4966C54.7551 54.3154 54.9641 54.5235 54.9641 54.7804C54.9641 55.0378 54.7551 55.2459 54.4966 55.2459Z" fill="white"/>
<path d="M54.4966 57.7112H46.7287C46.4707 57.7112 46.2617 57.5026 46.2617 57.2457C46.2617 56.9889 46.4707 56.7808 46.7287 56.7808H54.4966C54.7551 56.7808 54.9641 56.9889 54.9641 57.2457C54.9641 57.5026 54.7551 57.7112 54.4966 57.7112Z" fill="white"/>
<path d="M54.4966 60.1763H46.7287C46.4707 60.1763 46.2617 59.9682 46.2617 59.7113C46.2617 59.4545 46.4707 59.2463 46.7287 59.2463H54.4966C54.7551 59.2463 54.9641 59.4545 54.9641 59.7113C54.9641 59.9682 54.7551 60.1763 54.4966 60.1763Z" fill="white"/>
<path d="M108 84.9004C108 93.7911 100.762 100.999 91.8341 100.999C82.9058 100.999 75.668 93.7911 75.668 84.9004C75.668 76.0097 82.9058 68.8022 91.8341 68.8022C100.762 68.8022 108 76.0097 108 84.9004Z" fill="#DB2726"/>
<path d="M105.293 84.9004C105.293 92.3023 99.2674 98.303 91.8342 98.303C84.401 98.303 78.375 92.3023 78.375 84.9004C78.375 77.4985 84.401 71.4978 91.8342 71.4978C99.2674 71.4978 105.293 77.4985 105.293 84.9004V84.9004Z" fill="#DB2726"/>
<path d="M94.1719 73.5376L93.6885 88.3472H90.1729L89.6748 73.5376H94.1719ZM89.5576 92.9321C89.5576 92.3071 89.7725 91.7896 90.2022 91.3794C90.6416 90.9595 91.2178 90.7495 91.9307 90.7495C92.6533 90.7495 93.2295 90.9595 93.6592 91.3794C94.0889 91.7896 94.3037 92.3071 94.3037 92.9321C94.3037 93.5376 94.0889 94.0503 93.6592 94.4702C93.2295 94.8901 92.6533 95.1001 91.9307 95.1001C91.2178 95.1001 90.6416 94.8901 90.2022 94.4702C89.7725 94.0503 89.5576 93.5376 89.5576 92.9321Z" fill="white"/>
</g>
<defs>
<filter id="filter0_d_842_162" x="0" y="0" width="139.048" height="138" filterUnits="userSpaceOnUse" color-interpolation-filters="sRGB">
<feFlood flood-opacity="0" result="BackgroundImageFix"/>
<feColorMatrix in="SourceAlpha" type="matrix" values="0 0 0 0 0 0 0 0 0 0 0 0 0 0 0 0 0 0 127 0" result="hardAlpha"/>
<feOffset dy="4"/>
<feGaussianBlur stdDeviation="2"/>
<feComposite in2="hardAlpha" operator="out"/>
<feColorMatrix type="matrix" values="0 0 0 0 0 0 0 0 0 0 0 0 0 0 0 0 0 0 0.25 0"/>
<feBlend mode="normal" in2="BackgroundImageFix" result="effect1_dropShadow_842_162"/>
<feBlend mode="normal" in="SourceGraphic" in2="effect1_dropShadow_842_162" result="shape"/>
</filter>
<clipPath id="clip0_842_162">
<rect width="69" height="62" fill="white" transform="translate(39 39)"/>
</clipPath>
</defs>
</svg>
