<svg width="140" height="138" viewBox="0 0 140 138" fill="none" xmlns="http://www.w3.org/2000/svg">
<g filter="url(#filter0_d_842_13)">
<path d="M116.428 6.28875C78.952 -4.44036 43.2658 0.551962 21.6073 6.56963C16.1742 8.07918 11.8008 12.1093 10.1158 17.4905C1.04654 46.453 2.91668 86.7802 10.1624 112.545C11.795 118.351 16.487 122.703 22.3294 124.198C59.7136 133.766 96.2292 129.862 117.219 124.186C122.567 122.739 126.796 118.704 128.521 113.439C139.744 79.1824 134.338 40.3928 128.31 18.2736C126.727 12.4642 122.216 7.94604 116.428 6.28875Z" fill="white"/>
</g>
<path d="M109.519 65.854L94.2137 53.1127C93.7869 52.6716 93.1993 52.4226 92.5855 52.4226H84.4253V65.854H109.519Z" fill="#0D5DA2"/>
<path d="M84.4253 76.7191C84.488 76.6537 84.5483 76.5868 84.6126 76.5224C86.8956 74.2393 89.9309 72.982 93.1594 72.982C96.388 72.982 99.4235 74.2393 101.706 76.5224C104.335 79.1518 105.496 82.7009 105.191 86.1437C105.446 86.1454 105.585 86.1463 105.585 86.1463C106.836 86.1463 107.851 85.1317 107.851 83.8803L109.823 70.386H84.4253V76.7191Z" fill="#0D5DA2"/>
<path d="M79.8936 40.3796H44.1533C42.9018 40.3796 40.8167 41.5532 39.9242 43.2214L37.6582 49.4459H45.5183C46.7697 49.4459 48.3998 50.3512 48.3998 51.6026C48.3998 52.8541 46.7697 53.978 45.5183 53.978H37.6582V58.5122H45.5183C46.7697 58.5122 48.3998 59.4509 48.3998 60.7023C48.3998 61.9538 46.7697 63.0443 45.5183 63.0443H37.6582V83.8552C37.6582 85.1066 38.6728 86.1212 39.9242 86.1212H41.6723C41.6425 85.7731 41.6247 85.4225 41.6247 85.0692C41.6247 81.8408 42.8819 78.8054 45.1648 76.5224C47.4478 74.2393 50.4831 72.9819 53.7116 72.9819C56.9403 72.9819 59.9757 74.2393 62.2584 76.5224C64.8882 79.1524 66.0488 82.7027 65.7434 86.1461H79.8936V40.3796Z" fill="#0D5DA2"/>
<path d="M59.1605 79.6202C57.7051 78.1646 55.7699 77.363 53.7118 77.363C51.6536 77.363 49.7184 78.1646 48.263 79.6202C46.8076 81.0756 46.0059 83.0108 46.0059 85.0692C46.0059 87.1276 46.8076 89.0628 48.263 90.5182C49.7184 91.9737 51.6536 92.7753 53.7118 92.7753C55.7699 92.7753 57.7051 91.9737 59.1605 90.5182C62.165 87.5137 62.165 82.6248 59.1605 79.6202V79.6202Z" fill="#0D5DA2"/>
<path d="M85.4541 85.0692C85.4541 87.1276 86.2557 89.0628 87.7112 90.5182C89.1668 91.9737 91.1018 92.7753 93.16 92.7753C95.2183 92.7753 97.1534 91.9737 98.6089 90.5182C101.613 87.5135 101.613 82.6248 98.6089 79.6202C97.1534 78.1646 95.2183 77.363 93.16 77.363C91.1017 77.363 89.1666 78.1646 87.7112 79.6202C86.2557 81.0756 85.4541 83.0108 85.4541 85.0692Z" fill="#0D5DA2"/>
<path d="M25 52.026C25 50.5085 26.2302 49.2783 27.7476 49.2783H50.2782V54.7736H27.7476C26.2302 54.7736 25 53.5434 25 52.026V52.026Z" fill="#DB2726"/>
<path d="M29.396 60.8182C29.396 59.3007 30.6262 58.0706 32.1436 58.0706H49.1789V63.5658H32.1436C30.6262 63.5658 29.396 62.3357 29.396 60.8182V60.8182Z" fill="#DB2726"/>
<path d="M32.6934 68.0388C32.6934 66.7824 33.7119 65.7639 34.9683 65.7639H45.433V70.3138H34.9683C33.7119 70.3138 32.6934 69.2953 32.6934 68.0388V68.0388Z" fill="#DB2726"/>
<path d="M90.7129 48.2659L96.9895 40.3805C98.1251 38.9553 98.751 37.162 98.751 35.3352V35.1113C98.751 30.6568 95.1453 27.0332 90.7129 27.0332C86.2805 27.0332 82.6748 30.6568 82.6748 35.1113V35.3352C82.6748 37.162 83.3006 38.9553 84.4363 40.3817L90.7129 48.2659ZM90.7129 30.4952C93.2495 30.4952 95.3061 32.5621 95.3061 35.1113C95.3061 37.6605 93.2495 39.7273 90.7129 39.7273C88.1763 39.7273 86.1197 37.6605 86.1197 35.1113C86.1197 32.5621 88.1763 30.4952 90.7129 30.4952Z" fill="#DB2726"/>
<defs>
<filter id="filter0_d_842_13" x="0" y="0" width="139.048" height="138" filterUnits="userSpaceOnUse" color-interpolation-filters="sRGB">
<feFlood flood-opacity="0" result="BackgroundImageFix"/>
<feColorMatrix in="SourceAlpha" type="matrix" values="0 0 0 0 0 0 0 0 0 0 0 0 0 0 0 0 0 0 127 0" result="hardAlpha"/>
<feOffset dy="4"/>
<feGaussianBlur stdDeviation="2"/>
<feComposite in2="hardAlpha" operator="out"/>
<feColorMatrix type="matrix" values="0 0 0 0 0 0 0 0 0 0 0 0 0 0 0 0 0 0 0.25 0"/>
<feBlend mode="normal" in2="BackgroundImageFix" result="effect1_dropShadow_842_13"/>
<feBlend mode="normal" in="SourceGraphic" in2="effect1_dropShadow_842_13" result="shape"/>
</filter>
</defs>
</svg>
