<svg width="140" height="138" viewBox="0 0 140 138" fill="none" xmlns="http://www.w3.org/2000/svg">
<g filter="url(#filter0_d_842_140)">
<path d="M116.428 6.28875C78.952 -4.44036 43.2658 0.551962 21.6073 6.56963C16.1742 8.07918 11.8008 12.1093 10.1158 17.4905C1.04654 46.453 2.91668 86.7802 10.1624 112.545C11.795 118.351 16.487 122.703 22.3294 124.198C59.7136 133.766 96.2292 129.862 117.219 124.186C122.567 122.739 126.796 118.704 128.521 113.439C139.744 79.1824 134.338 40.3928 128.31 18.2736C126.727 12.4642 122.216 7.94604 116.428 6.28875Z" fill="white"/>
</g>
<path d="M102.013 78.0969L98.8825 67.19H91.3677V77.0062C91.3677 78.4525 90.7932 79.8396 89.7704 80.8623C88.7477 81.8851 87.3606 82.4596 85.9143 82.4596H80.4608C80.2863 81.3689 81.257 77.5951 77.9086 74.5958C78.6525 74.3344 79.2973 73.8492 79.7543 73.2067C80.2113 72.5641 80.4581 71.7959 80.4608 71.0074C80.4585 70.4403 80.328 69.881 80.0791 69.3714H81.7588L84.0928 80.2782H85.9143C86.7821 80.2782 87.6143 79.9335 88.228 79.3199C88.8416 78.7062 89.1863 77.874 89.1863 77.0062V72.7961L87.6048 65.4122C87.4478 64.681 87.045 64.0256 86.4635 63.5553C85.882 63.085 85.157 62.828 84.4091 62.8272H81.3443C82.2387 61.1803 83.5911 58.8571 84.4637 57.4611L86.2306 59.2389C86.383 59.3896 86.5765 59.492 86.7868 59.5334L91.3677 60.4496V65.0086H100.093C100.961 65.0086 101.793 64.6639 102.407 64.0503C103.021 63.4366 103.365 62.6044 103.365 61.7366V55.1924C103.365 54.3246 103.021 53.4924 102.407 52.8787C101.793 52.2651 100.961 51.9204 100.093 51.9204H92.4584C92.1691 51.9204 91.8917 52.0353 91.6872 52.2398C91.4826 52.4444 91.3677 52.7218 91.3677 53.0111V53.6655L89.5135 53.251C87.8781 51.4798 86.1487 49.7978 84.3328 48.212C83.665 47.8288 82.917 47.6066 82.1483 47.5631C81.3796 47.5196 80.6114 47.6559 79.9046 47.9612C77.0498 49.1938 74.4775 50.9977 72.3461 53.2619C70.0463 55.8304 68.3078 58.8505 67.2417 62.1292C66.955 62.948 66.8677 63.8235 66.9872 64.6828C67.1068 65.5421 67.4296 66.3605 67.9288 67.07L68.0379 67.19H57.0111C56.1631 67.1875 55.3385 67.4683 54.6683 67.9878C53.998 68.5072 53.5204 69.2356 53.3112 70.0574C53.102 70.8792 53.1732 71.7473 53.5135 72.524C53.8538 73.3007 54.4437 73.9416 55.1896 74.3449C52.9378 75.5591 51.0564 77.3601 49.7449 79.5567C48.4334 81.7534 47.7407 84.264 47.7402 86.8224C47.7402 87.1116 47.8551 87.389 48.0597 87.5936C48.2642 87.7981 48.5417 87.913 48.8309 87.913H51.0123C51.0123 90.5165 52.0465 93.0132 53.8874 94.8541C55.7283 96.695 58.2251 97.7292 60.8285 97.7292C63.4319 97.7292 65.9287 96.695 67.7696 94.8541C69.6105 93.0132 70.6447 90.5165 70.6447 87.913H91.3677C91.3745 89.8177 91.9353 91.6792 92.9816 93.2707C94.0279 94.8621 95.5147 96.1148 97.2606 96.8761C99.0065 97.6373 100.936 97.8742 102.814 97.5578C104.692 97.2414 106.438 96.3855 107.838 95.0943C109.238 93.8032 110.233 92.1326 110.7 90.2861C111.167 88.4397 111.087 86.4972 110.47 84.6955C109.852 82.8937 108.724 81.3105 107.222 80.1389C105.721 78.9672 103.911 78.2577 102.013 78.0969ZM60.8285 95.5479C59.3185 95.5479 57.8423 95.1001 56.5868 94.2612C55.3313 93.4222 54.3527 92.2298 53.7748 90.8348C53.197 89.4397 53.0458 87.9046 53.3404 86.4236C53.635 84.9426 54.3621 83.5822 55.4299 82.5144C56.4976 81.4467 57.858 80.7195 59.339 80.4249C60.82 80.1303 62.3551 80.2815 63.7502 80.8594C65.1453 81.4373 66.3377 82.4158 67.1766 83.6714C68.0155 84.9269 68.4633 86.403 68.4633 87.913C68.4633 88.9157 68.2658 89.9085 67.8821 90.8348C67.4984 91.7611 66.9361 92.6027 66.2271 93.3117C65.5181 94.0206 64.6765 94.583 63.7502 94.9667C62.8239 95.3504 61.8311 95.5479 60.8285 95.5479V95.5479ZM101.184 95.5479C99.6739 95.5479 98.1978 95.1001 96.9422 94.2612C95.6867 93.4222 94.7081 92.2298 94.1303 90.8348C93.5524 89.4397 93.4012 87.9046 93.6958 86.4236C93.9904 84.9426 94.7175 83.5822 95.7853 82.5144C96.853 81.4467 98.2134 80.7195 99.6944 80.4249C101.175 80.1303 102.711 80.2815 104.106 80.8594C105.501 81.4373 106.693 82.4158 107.532 83.6714C108.371 84.9269 108.819 86.403 108.819 87.913C108.819 88.9157 108.621 89.9085 108.238 90.8348C107.854 91.7611 107.291 92.6027 106.583 93.3117C105.874 94.0206 105.032 94.583 104.106 94.9667C103.179 95.3504 102.187 95.5479 101.184 95.5479V95.5479Z" fill="#0D5DA2"/>
<path d="M101.184 92.2758C103.594 92.2758 105.547 90.3225 105.547 87.913C105.547 85.5036 103.594 83.5503 101.184 83.5503C98.7746 83.5503 96.8213 85.5036 96.8213 87.913C96.8213 90.3225 98.7746 92.2758 101.184 92.2758Z" fill="#0D5DA2"/>
<path d="M60.8286 92.2758C63.238 92.2758 65.1913 90.3225 65.1913 87.913C65.1913 85.5036 63.238 83.5503 60.8286 83.5503C58.4191 83.5503 56.4658 85.5036 56.4658 87.913C56.4658 90.3225 58.4191 92.2758 60.8286 92.2758Z" fill="#0D5DA2"/>
<path d="M65.1912 53.0111C65.1912 52.7218 65.0763 52.4444 64.8718 52.2399C64.6672 52.0353 64.3898 51.9204 64.1005 51.9204H48.8309C48.5417 51.9204 48.2642 52.0353 48.0597 52.2399C47.8551 52.4444 47.7402 52.7218 47.7402 53.0111V65.0087H65.1912V53.0111Z" fill="#0D5DA2"/>
<path d="M99.0025 40.4683C98.9996 38.8782 98.3667 37.354 97.2423 36.2297C96.118 35.1053 94.5938 34.4724 93.0037 34.4695H89.7317C88.151 34.4723 86.635 35.0977 85.5122 36.2103C84.3894 37.3229 83.7501 38.8331 83.7329 40.4137V43.0641C83.7351 44.8985 84.3976 46.6707 85.5993 48.0567C86.801 49.4426 88.4615 50.3496 90.277 50.6116V42.1043C90.277 41.815 90.3919 41.5376 90.5965 41.3331C90.801 41.1285 91.0785 41.0136 91.3677 41.0136H99.0025V40.4683Z" fill="#DB2726"/>
<path d="M92.458 49.968C93.2816 49.9142 94.0857 49.6938 94.8216 49.3201C95.5574 48.9464 96.2098 48.4271 96.739 47.7938C97.2683 47.1605 97.6635 46.4264 97.9006 45.6359C98.1378 44.8453 98.212 44.0149 98.1187 43.1948H92.458V49.968Z" fill="#DB2726"/>
<path d="M58 52H54V55H54.1482C54.177 54.878 54.2929 54.7867 54.4317 54.7867C54.5705 54.7867 54.6862 54.878 54.7152 55H54.9324C54.9612 54.878 55.0771 54.7867 55.2159 54.7867C55.3547 54.7867 55.4704 54.878 55.4994 55H55.7164C55.7454 54.878 55.8611 54.7867 56.0001 54.7867C56.1389 54.7867 56.2546 54.878 56.2836 55H56.5006C56.5296 54.878 56.6453 54.7867 56.7841 54.7867C56.9231 54.7867 57.0388 54.878 57.0678 55H57.2848C57.3138 54.878 57.4295 54.7867 57.5683 54.7867C57.7073 54.7867 57.823 54.878 57.8519 55H58V52Z" fill="white"/>
<rect x="21" y="56" width="24" height="3" rx="1.5" fill="#DB2726"/>
<rect x="24" y="64" width="21" height="3" rx="1.5" fill="#DB2726"/>
<rect x="29" y="72" width="16" height="3" rx="1.5" fill="#DB2726"/>
<defs>
<filter id="filter0_d_842_140" x="0" y="0" width="139.048" height="138" filterUnits="userSpaceOnUse" color-interpolation-filters="sRGB">
<feFlood flood-opacity="0" result="BackgroundImageFix"/>
<feColorMatrix in="SourceAlpha" type="matrix" values="0 0 0 0 0 0 0 0 0 0 0 0 0 0 0 0 0 0 127 0" result="hardAlpha"/>
<feOffset dy="4"/>
<feGaussianBlur stdDeviation="2"/>
<feComposite in2="hardAlpha" operator="out"/>
<feColorMatrix type="matrix" values="0 0 0 0 0 0 0 0 0 0 0 0 0 0 0 0 0 0 0.25 0"/>
<feBlend mode="normal" in2="BackgroundImageFix" result="effect1_dropShadow_842_140"/>
<feBlend mode="normal" in="SourceGraphic" in2="effect1_dropShadow_842_140" result="shape"/>
</filter>
</defs>
</svg>
