<svg width="140" height="138" viewBox="0 0 140 138" fill="none" xmlns="http://www.w3.org/2000/svg">
<g filter="url(#filter0_d_842_80)">
<path d="M116.428 6.28875C78.952 -4.44036 43.2658 0.551962 21.6073 6.56963C16.1742 8.07918 11.8008 12.1093 10.1158 17.4905C1.04654 46.453 2.91668 86.7802 10.1624 112.545C11.795 118.351 16.487 122.703 22.3294 124.198C59.7136 133.766 96.2292 129.862 117.219 124.186C122.567 122.739 126.796 118.704 128.521 113.439C139.744 79.1824 134.338 40.3928 128.31 18.2736C126.727 12.4642 122.216 7.94604 116.428 6.28875Z" fill="white"/>
</g>
<path d="M107.998 70.6899L94.215 59.2162C93.8306 58.8189 93.3014 58.5947 92.7487 58.5947H85.4004V70.6899H107.998Z" fill="#0D5DA2"/>
<path d="M85.4004 80.4741C85.4568 80.4152 85.5111 80.3549 85.5691 80.2969C87.6249 78.241 90.3582 77.1087 93.2655 77.1087C96.173 77.1087 98.9064 78.241 100.962 80.2969C103.33 82.6647 104.375 85.8607 104.1 88.961C104.33 88.9625 104.455 88.9634 104.455 88.9634C105.582 88.9634 106.495 88.0497 106.495 86.9228L108.271 74.771H85.4004V80.4741Z" fill="#0D5DA2"/>
<path d="M81.3191 47.75H49.1346C48.0076 47.75 46.1299 48.8068 45.3262 50.3091L43.2856 55.9143H50.3637C51.4907 55.9143 52.9586 56.7295 52.9586 57.8564C52.9586 58.9834 51.4907 59.9955 50.3637 59.9955H43.2856V64.0786H50.3637C51.4907 64.0786 52.9586 64.9239 52.9586 66.0508C52.9586 67.1778 51.4907 68.1598 50.3637 68.1598H43.2856V86.9002C43.2856 88.0272 44.1993 88.9408 45.3262 88.9408H46.9004C46.8736 88.6274 46.8575 88.3116 46.8575 87.9934C46.8575 85.0863 47.9896 82.3528 50.0455 80.297C52.1013 78.241 54.8346 77.1088 57.7419 77.1088C60.6494 77.1088 63.3828 78.241 65.4384 80.297C67.8065 82.6653 68.8517 85.8624 68.5767 88.9633H81.3191V47.75Z" fill="#0D5DA2"/>
<path d="M62.6492 83.0865C61.3386 81.7758 59.5959 81.054 57.7425 81.054C55.8891 81.054 54.1464 81.7758 52.8358 83.0865C51.5252 84.3971 50.8032 86.1398 50.8032 87.9935C50.8032 89.847 51.5252 91.5897 52.8358 92.9003C54.1464 94.211 55.8891 94.9329 57.7425 94.9329C59.5959 94.9329 61.3386 94.211 62.6492 92.9003C65.3547 90.1947 65.3547 85.7922 62.6492 83.0865V83.0865Z" fill="#0D5DA2"/>
<path d="M86.3262 87.9935C86.3262 89.847 87.048 91.5897 88.3587 92.9003C89.6695 94.211 91.412 94.9329 93.2654 94.9329C95.119 94.9329 96.8615 94.211 98.1722 92.9003C100.878 90.1946 100.878 85.7922 98.1722 83.0865C96.8615 81.7758 95.119 81.054 93.2654 81.054C91.4119 81.054 89.6694 81.7758 88.3587 83.0865C87.048 84.3971 86.3262 86.1398 86.3262 87.9935Z" fill="#0D5DA2"/>
<path d="M73.6819 65.7842V76.3196H71.7065V65.7842H73.6819ZM73.4007 72.3482H72.8588C72.8634 71.8315 72.932 71.356 73.0646 70.9216C73.1972 70.4826 73.387 70.1031 73.6339 69.783C73.8808 69.4583 74.1757 69.2068 74.5187 69.0285C74.8662 68.8502 75.2503 68.761 75.671 68.761C76.0368 68.761 76.3683 68.8136 76.6655 68.9188C76.9673 69.0194 77.2257 69.184 77.4406 69.4126C77.6601 69.6367 77.8293 69.9316 77.9482 70.2974C78.0671 70.6632 78.1265 71.1068 78.1265 71.6281V76.3196H76.1374V71.6143C76.1374 71.2851 76.0894 71.0268 75.9934 70.8393C75.9019 70.6472 75.767 70.5123 75.5887 70.4346C75.4149 70.3523 75.2 70.3111 74.9439 70.3111C74.6604 70.3111 74.4181 70.3637 74.2169 70.4689C74.0203 70.5741 73.8625 70.7204 73.7436 70.9079C73.6247 71.0908 73.5379 71.3057 73.483 71.5526C73.4281 71.7995 73.4007 72.0647 73.4007 72.3482Z" fill="white"/>
<path d="M21 57.9929C21 56.8615 21.9172 55.9443 23.0486 55.9443H43.398V60.0415H23.0486C21.9172 60.0415 21 59.1243 21 57.9929V57.9929Z" fill="#DB2726"/>
<path d="M25.917 66.1873C25.917 65.0559 26.8342 64.1387 27.9656 64.1387H43.3984V68.2359H27.9656C26.8342 68.2359 25.917 67.3187 25.917 66.1873V66.1873Z" fill="#DB2726"/>
<path d="M31.9258 73.2893C31.9258 72.1579 32.843 71.2407 33.9744 71.2407H43.3979V75.3379H33.9744C32.843 75.3379 31.9258 74.4207 31.9258 73.2893V73.2893Z" fill="#DB2726"/>
<path d="M61.8277 70.5812H55.0701V69.241C56.8586 67.2165 59.5458 65.0071 59.5458 63.5737C59.5458 63.1358 59.3986 62.1653 58.2662 62.1653C56.8964 62.1653 56.8379 63.5848 56.8379 63.8244H54.8741C54.8194 63.1927 55.2942 60.5876 58.3002 60.5876C61.4704 60.5876 61.5096 62.9509 61.5096 63.3843C61.5096 65.5197 58.7596 67.6144 57.5894 69.0043H61.8277V70.5812Z" fill="white"/>
<path d="M68.5037 66.8707H69.6206V68.4484H68.5037V70.5809H66.5473V68.4484H62.505L62.417 67.2162L66.5266 60.7227H68.5037V66.8707ZM64.3667 66.8707H66.5473V63.3906L64.3667 66.8707Z" fill="white"/>
<g clip-path="url(#clip0_842_80)">
<path d="M90.5215 33V34.914H92.4355V35.871C93.1054 35.7753 93.6795 35.7753 94.3495 35.871V34.914H96.2635V33H90.5215Z" fill="#DB2726"/>
<path d="M99.9 39.3162L100.57 38.6463L101.335 39.4119L102.675 38.0721L99.8043 35.2012L98.4645 36.541L99.2301 37.3065L98.3688 38.1678C93.7753 35.3925 87.8419 36.828 85.1624 41.4216C82.4828 46.0151 83.9183 51.757 88.4161 54.5323C92.914 57.3076 98.8473 55.8721 101.527 51.2786C103.919 47.3549 103.249 42.3786 99.9 39.3162ZM93.3925 53.0012C89.6602 53.0012 86.6935 50.0345 86.6935 46.3023C86.6935 42.57 89.6602 39.6033 93.3925 39.6033V46.3022H100.091C100.091 50.0345 97.1247 53.0012 93.3925 53.0012Z" fill="#DB2726"/>
</g>
<defs>
<filter id="filter0_d_842_80" x="0" y="0" width="139.048" height="138" filterUnits="userSpaceOnUse" color-interpolation-filters="sRGB">
<feFlood flood-opacity="0" result="BackgroundImageFix"/>
<feColorMatrix in="SourceAlpha" type="matrix" values="0 0 0 0 0 0 0 0 0 0 0 0 0 0 0 0 0 0 127 0" result="hardAlpha"/>
<feOffset dy="4"/>
<feGaussianBlur stdDeviation="2"/>
<feComposite in2="hardAlpha" operator="out"/>
<feColorMatrix type="matrix" values="0 0 0 0 0 0 0 0 0 0 0 0 0 0 0 0 0 0 0.25 0"/>
<feBlend mode="normal" in2="BackgroundImageFix" result="effect1_dropShadow_842_80"/>
<feBlend mode="normal" in="SourceGraphic" in2="effect1_dropShadow_842_80" result="shape"/>
</filter>
<clipPath id="clip0_842_80">
<rect width="22.9443" height="22.9443" fill="white" transform="translate(81.9116 33)"/>
</clipPath>
</defs>
</svg>
