<svg width="24" height="21" viewBox="0 0 24 21" fill="none" xmlns="http://www.w3.org/2000/svg">
<path d="M20.7072 13.6785C20.592 12.8509 19.974 12.2057 19.1784 12.0134C16.086 11.264 15.3108 9.42273 15.18 7.38044C14.6316 7.27497 13.656 7.16082 12 7.16082C10.344 7.16082 9.36837 7.27497 8.81997 7.38044C8.68917 9.42273 7.91397 11.264 4.82157 12.0134C4.02597 12.207 3.40797 12.8509 3.29277 13.6785L2.69637 17.9492C2.48637 19.453 3.55437 20.8092 5.03997 20.8092H18.96C20.4444 20.8092 21.5136 19.453 21.3036 17.9492L20.7072 13.6785ZM12 17.6973C10.326 17.6973 8.96877 16.3077 8.96877 14.5954C8.96877 12.8832 10.326 11.4936 12 11.4936C13.674 11.4936 15.0312 12.8832 15.0312 14.5954C15.0312 16.3077 13.6728 17.6973 12 17.6973ZM23.94 5.92006C23.9112 4.05893 19.3296 0.958272 12 0.957031C4.66917 0.958272 0.0875734 4.05893 0.0599734 5.92006C0.0323734 7.7812 0.0851734 10.2032 3.10197 9.79992C6.63117 9.32719 6.41397 8.05293 6.41397 6.2315C6.41397 4.96096 9.28437 4.65449 12 4.65449C14.7156 4.65449 17.5848 4.96096 17.586 6.2315C17.586 8.05293 17.3688 9.32719 20.898 9.79992C23.9136 10.2032 23.9676 7.7812 23.94 5.92006Z" fill="white"/>
</svg>
