<svg width="112" height="111" viewBox="0 0 112 111" fill="none" xmlns="http://www.w3.org/2000/svg">
<path d="M89.653 43.5491C101.549 43.5491 111.227 33.871 111.227 21.975C110.397 -5.30944 71.6557 -7.09514 68.1861 19.8176H15.869C14.6775 19.8176 13.7116 20.7834 13.7116 21.975V83.8438C11.2795 86.0252 9.15189 88.8009 7.30105 92.1935L1.55326 102.345C0.512956 104.216 0.512524 106.476 1.55218 108.244C2.51612 109.883 4.21961 110.861 6.10886 110.861H26.2641C29.6795 110.861 31.0003 110.169 32.6822 107.495L34.2884 104.943L45.6631 105.486C54.2058 105.893 56.9315 105.459 65.1105 102.393C73.7412 99.2105 87.8108 93.1911 95.5117 90.2531C95.5188 90.2507 95.5257 90.2481 95.5329 90.2455C99.4063 88.8456 100.589 85.2103 99.756 82.3429C98.9491 79.5663 96.014 77.0378 91.4754 78.0471C91.4627 78.0499 91.45 78.0529 91.4374 78.0559L87.0642 79.112V43.3944C87.9129 43.4965 88.7769 43.5491 89.653 43.5491ZM89.653 4.71564C99.1698 4.71564 106.912 12.4582 106.912 21.975C106.045 44.8403 73.258 44.8341 72.3937 21.9748C72.3937 12.4582 80.1363 4.71564 89.653 4.71564ZM41.758 24.1324H59.0173V43.9539L51.538 39.2397C50.8351 38.7966 49.9402 38.7966 49.2373 39.2397L41.758 43.9539V24.1324ZM92.4296 82.2553C94.0822 81.8933 95.2716 82.3753 95.6123 83.5472C95.8843 84.4831 95.5137 85.6604 94.0745 86.1849C86.4221 89.0909 72.2045 95.18 63.5953 98.3527C55.97 101.212 53.8158 101.555 45.8685 101.176L33.2356 100.573C32.4587 100.535 31.7213 100.921 31.3068 101.579L29.0299 105.198C28.7285 105.677 28.3533 106.242 28.1261 106.363C27.7801 106.546 26.6386 106.542 26.2641 106.546H6.10864C5.74426 106.546 5.4625 106.381 5.27135 106.056C4.99952 105.594 5.01937 104.99 5.31623 104.456L11.0644 94.3043C11.0703 94.2942 11.0759 94.284 11.0815 94.2737C18.8594 80.2709 29.4074 81.1947 41.2709 83.0124C44.6328 83.5181 47.808 83.9951 50.4431 83.7519C52.465 83.5666 65.1545 82.122 67.2569 81.927C67.7082 81.8864 68.1576 82.0299 68.5216 82.3343C68.9253 82.6717 69.1733 83.1537 69.2197 83.6915C69.2493 84.032 69.3276 84.9366 66.91 85.9831C61.5941 88.2847 55.9488 90.2145 51.4217 91.2774C50.2617 91.5499 49.5422 92.711 49.8144 93.8709C50.0869 95.0309 51.2485 95.7498 52.4079 95.4781C57.1732 94.3591 63.0838 92.3417 68.6243 89.9429C70.555 89.1071 71.7694 88.1 72.5081 87.0655L92.4296 82.2553ZM82.7489 80.1538L73.376 82.4169C73.0683 81.0895 72.3458 79.907 71.2887 79.0235C70.0365 77.9772 68.4633 77.482 66.8602 77.6305C64.8449 77.8149 52.1554 79.2596 50.0459 79.4554C47.9321 79.6507 45.0081 79.211 41.9122 78.7454C34.6918 77.5103 25.1207 76.6368 18.0264 80.7687V24.1324H37.4432V47.864C37.4432 48.6497 37.8703 49.3733 38.5583 49.753C39.2461 50.1325 40.0862 50.1079 40.7509 49.6891L50.3877 43.6151L60.0244 49.6891C60.6897 50.1083 61.5298 50.1323 62.217 49.753C62.905 49.3733 63.3321 48.6497 63.3321 47.864V24.1324H68.1859C69.037 32.6667 74.8825 39.7523 82.7487 42.4163L82.7489 80.1538Z" fill="white"/>
<path d="M24.4985 64.8717H32.0495C34.9089 64.7656 34.9067 60.6609 32.0495 60.5558H24.4985C21.6391 60.6619 21.6412 64.7667 24.4985 64.8717Z" fill="white"/>
<path d="M39.6003 69.1853H24.4984C21.639 69.2914 21.6411 73.3961 24.4984 73.5012H39.6003C42.4598 73.3951 42.4576 69.2904 39.6003 69.1853Z" fill="white"/>
<path d="M85.7002 28.3494C86.5427 29.1918 87.9088 29.1918 88.7514 28.3494L98.4598 18.641C100.41 16.5509 97.4965 13.6408 95.4086 15.5898L87.2257 23.7726L83.897 20.444C81.8069 18.4941 78.8968 21.4072 80.8458 23.4952L85.7002 28.3494Z" fill="white"/>
</svg>
