<svg width="115" height="83" viewBox="0 0 115 83" fill="none" xmlns="http://www.w3.org/2000/svg">
<path d="M26.7597 59.6023C20.4355 59.6023 15.2926 64.7755 15.2926 71.1369C15.2926 77.4984 20.4355 82.6716 26.7597 82.6716C33.0839 82.6716 38.2269 77.4984 38.2269 71.1369C38.2269 64.7755 33.0837 59.6023 26.7597 59.6023ZM26.7597 78.8266C22.5435 78.8266 19.115 75.3777 19.115 71.1369C19.115 66.8959 22.5438 63.4472 26.7597 63.4472C30.9757 63.4472 34.4044 66.8961 34.4044 71.1369C34.4044 75.3777 30.9757 78.8266 26.7597 78.8266Z" fill="white"/>
<path d="M91.7375 59.6023C85.4134 59.6023 80.2704 64.7755 80.2704 71.1369C80.2704 77.4984 85.4134 82.6716 91.7375 82.6716C98.0617 82.6716 103.205 77.4984 103.205 71.1369C103.205 64.7755 98.0617 59.6023 91.7375 59.6023ZM91.7375 78.8266C87.5213 78.8266 84.0928 75.3777 84.0928 71.1369C84.0928 66.8959 87.5216 63.4472 91.7375 63.4472C95.9537 63.4472 99.3822 66.8961 99.3822 71.1369C99.3822 75.3777 95.9537 78.8266 91.7375 78.8266Z" fill="white"/>
<path d="M114.372 48.9468L97.1708 22.0325C96.8192 21.4825 96.2133 21.15 95.5634 21.15H74.5404C73.4835 21.15 72.6293 22.0113 72.6293 23.0724V71.1334C72.6293 72.1966 73.4835 73.0558 74.5404 73.0558H82.1851V69.2109H76.4515V24.995H94.5199L110.853 50.5519V69.2113H101.297V73.056H112.764C113.821 73.056 114.675 72.1968 114.675 71.1337V49.9867C114.675 49.6195 114.57 49.2561 114.372 48.9468Z" fill="white"/>
<path d="M84.0926 46.1374V32.6803H99.3822V28.8353H82.1815C81.1246 28.8353 80.2704 29.6966 80.2704 30.7577V48.0597C80.2704 49.1229 81.1246 49.9821 82.1815 49.9821H110.849V46.1371H84.0926V46.1374Z" fill="white"/>
<path d="M74.5365 7.69052H1.91112C0.85623 7.69052 0 8.55179 0 9.61289V71.1312C0 72.1944 0.85623 73.0536 1.91112 73.0536H17.2007V69.2086H3.82246V11.5353H72.6254V69.2086H36.3126V73.0536H74.5365C75.5934 73.0536 76.4477 72.1944 76.4477 71.1312V9.61289C76.4477 8.55179 75.5934 7.69052 74.5365 7.69052Z" fill="white"/>
<path d="M13.3735 61.5236H1.90633V65.3686H13.3735V61.5236Z" fill="white"/>
<path d="M72.6281 61.5236H40.1378V65.3686H72.6281V61.5236Z" fill="white"/>
<path d="M112.766 61.5236H105.121V65.3686H112.766V61.5236Z" fill="white"/>
<path d="M74.5434 15.3809H7.65158V19.2258H74.5434V15.3809Z" fill="white"/>
<path d="M28.6677 69.2141H24.8453V73.059H28.6677V69.2141Z" fill="white"/>
<path d="M93.6456 69.2141H89.8231V73.059H93.6456V69.2141Z" fill="white"/>
<path d="M34.4065 0H7.64975V3.84497H34.4065V0Z" fill="white"/>
<path d="M3.82246 0H0V3.84497H3.82246V0Z" fill="white"/>
</svg>
