<svg width="108" height="101" viewBox="0 0 108 101" fill="none" xmlns="http://www.w3.org/2000/svg">
<path d="M103.528 42.2885C103.768 41.7283 103.907 41.121 103.907 40.4814V4.85777C103.907 2.17952 101.587 0 98.7362 0H57.3668C54.5158 0 52.1956 2.17952 52.1956 4.85777V40.4814C52.1956 41.121 52.3353 41.7283 52.5749 42.2885C50.3771 42.8472 48.7482 44.719 48.7482 46.9585V55.0547H45.3007V61.5318H41.8533V66.7863L30.2181 69.9098C29.558 68.8006 28.8461 67.7206 28.0635 66.6859V54.9916C29.8234 54.8378 31.4644 54.1528 32.7313 52.9627C34.1672 51.6122 34.9584 49.8164 34.9584 47.9073V44.8874L40.1296 43.2682V42.1007C40.1296 38.7521 38.0542 34.2473 36.315 31.059C36.1443 30.7465 35.9444 30.4566 35.7289 30.1797C39.3022 28.9021 41.8533 25.6604 41.8533 21.86C41.8533 16.9488 37.6009 12.9541 32.3728 12.9541H23.5146C10.8159 12.9541 0.483887 22.6599 0.483887 34.5889C0.483887 42.8374 5.36203 50.252 13.2136 53.9407L14.2737 54.4378V57.1711L13.2429 57.5338C5.72746 60.1829 0.651088 66.966 0.497677 74.4858H0.483887V100.394H34.9584V91.1172L41.8533 88.7968V100.394H64.2617C67.1128 100.394 69.4329 98.2144 69.4329 95.5362V71.2473H73.1975C73.0044 71.7558 72.8803 72.2966 72.8803 72.8666V92.2976C72.8803 94.9759 75.2005 97.1554 78.0515 97.1554H98.7362C101.587 97.1554 103.907 94.9759 103.907 92.2976V72.8666C103.907 72.227 103.768 71.6197 103.528 71.0595C105.726 70.4992 107.355 68.629 107.355 66.3895V46.9585C107.355 44.719 105.726 42.8472 103.528 42.2885ZM72.8803 3.23851H83.2227V9.71554H72.8803V3.23851ZM55.6431 4.85777C55.6431 3.96556 56.417 3.23851 57.3668 3.23851H69.4329V12.9541H86.6702V3.23851H98.7362C99.686 3.23851 100.46 3.96556 100.46 4.85777V40.4814C100.46 41.3736 99.686 42.1007 98.7362 42.1007H81.499H74.6041H57.3668C56.417 42.1007 55.6431 41.3736 55.6431 40.4814V4.85777ZM90.1176 45.3392H93.565V48.5777H90.1176V45.3392ZM62.538 45.3392H65.9855V48.5777H62.538V45.3392ZM48.7482 58.2933H64.2617C65.2115 58.2933 65.9855 59.0187 65.9855 59.9125C65.9855 60.8063 65.2115 61.5318 64.2617 61.5318H48.7482V58.2933ZM20.3481 84.0232L44.925 77.4264L46.1661 73.932C46.478 73.0512 47.2227 72.3516 48.1604 72.0586C49.2981 71.7039 50.534 71.976 51.3855 72.7743L53.2057 74.4858H55.9137C57.665 74.4858 59.0905 75.825 59.0905 77.4717C59.0905 78.8044 58.1356 79.9864 56.6532 80.3799L28.6909 89.7878C26.9327 90.3772 25.0935 90.6784 23.2233 90.6784H20.91C18.714 90.6784 16.5628 90.2444 14.5702 89.4494L20.3481 84.0232ZM41.8533 70.1559V74.8842L33.4329 77.143C32.9778 75.6792 32.4383 74.2462 31.7867 72.8585L41.8533 70.1559ZM36.5856 40.964L31.5109 42.5541V47.909C31.5109 48.9534 31.0783 49.9346 30.2905 50.6746C29.5062 51.413 28.4617 51.8195 27.3499 51.8195L21.1686 51.8162V55.0547L24.616 55.0564V62.7754C22.5614 60.748 20.2533 58.9507 17.7211 57.4334V44.6688L14.7787 41.9048C14.453 41.5987 14.2737 41.1907 14.2737 40.7583V40.4814C14.2737 39.5892 15.0476 38.8622 15.9974 38.8622H17.7211V34.0044C17.7211 32.2184 19.2673 30.7659 21.1686 30.7659H29.7872H30.1716C31.473 30.7659 32.6503 31.4444 33.2467 32.5357C35.0997 35.9313 36.2546 38.8622 36.5856 40.964ZM3.93134 34.5889C3.93134 24.4459 12.7172 16.1926 23.5146 16.1926H32.3728C35.6996 16.1926 38.4058 18.7348 38.4058 21.86C38.4058 24.9851 35.6996 27.5274 32.3728 27.5274H30.1716H29.7872H21.1686C17.3661 27.5274 14.2737 30.4323 14.2737 34.0044V35.9005C12.2673 36.5693 10.8262 38.3699 10.8262 40.4814V40.7583C10.8262 42.0553 11.364 43.2763 12.3414 44.1944L14.2737 46.0096V50.775C7.89073 47.5624 3.93134 41.4238 3.93134 34.5889ZM14.4547 60.5667L15.7751 60.1003C22.6975 64.2197 27.8273 70.653 30.1233 78.032L20.5584 80.5985L19.8792 78.6862C18.2848 74.1944 14.4116 70.8247 9.51965 69.6766L8.68365 72.818C12.4259 73.6972 15.3889 76.2751 16.6093 79.7128L17.4729 82.1465L11.4433 87.8107C11.071 87.5597 10.7073 87.2941 10.3574 87.0124L9.5955 86.3987C5.99636 83.4986 3.93134 79.2837 3.93134 74.8307C3.93134 68.5156 8.15963 62.7835 14.4547 60.5667ZM31.5109 97.1554H3.93134V85.2345C4.8949 86.559 6.02566 87.788 7.35121 88.8551L8.11309 89.4688C11.6743 92.3365 16.2181 93.9169 20.91 93.9169H23.2233C25.49 93.9169 27.7205 93.5526 29.8544 92.8352L31.5109 92.2782V97.1554ZM64.2617 97.1554H45.3007V87.6358L57.6995 83.463C60.5488 82.7133 62.538 80.2504 62.538 77.4717C62.538 74.0405 59.5663 71.2473 55.9137 71.2473H54.633L53.8211 70.4846C52.0422 68.812 49.4549 68.2371 47.0693 68.9852C46.4229 69.1876 45.842 69.5115 45.3007 69.8823V64.7703H64.2617C64.8685 64.7703 65.4442 64.6537 65.9855 64.4723V95.5362C65.9855 96.43 65.2115 97.1554 64.2617 97.1554ZM69.4329 59.9125C69.4329 57.2343 67.1128 55.0547 64.2617 55.0547H52.1956V46.9585C52.1956 46.0662 52.9696 45.3392 53.9194 45.3392H57.3668H59.0905V51.8162H69.4329V45.3392H74.6041C75.5538 45.3392 76.3278 46.0662 76.3278 46.9585V66.3895C76.3278 67.2834 75.5538 68.0088 74.6041 68.0088H69.4329V59.9125ZM100.46 92.2976C100.46 93.1915 99.686 93.9169 98.7362 93.9169H78.0515C77.1017 93.9169 76.3278 93.1915 76.3278 92.2976V72.8666C76.3278 71.9727 77.1017 71.2473 78.0515 71.2473H81.499H83.2227V77.7243H93.565V71.2473H98.7362C99.686 71.2473 100.46 71.9727 100.46 72.8666V92.2976ZM86.6702 71.2473H90.1176V74.4858H86.6702V71.2473ZM103.907 66.3895C103.907 67.2834 103.133 68.0088 102.184 68.0088H98.7362H81.499C80.5492 68.0088 79.7752 67.2834 79.7752 66.3895V46.9585C79.7752 46.0662 80.5492 45.3392 81.499 45.3392H86.6702V51.8162H97.0125V45.3392H98.7362H102.184C103.133 45.3392 103.907 46.0662 103.907 46.9585V66.3895Z" fill="white"/>
<path d="M86.6902 35.6245H90.1376V38.8631H86.6902V35.6245Z" fill="white"/>
<path d="M93.5721 35.6245H97.0196V38.8631H93.5721V35.6245Z" fill="white"/>
<path d="M79.7831 35.6245H83.2306V38.8631H79.7831V35.6245Z" fill="white"/>
<path d="M79.7831 29.136H97.0204V32.3745H79.7831V29.136Z" fill="white"/>
</svg>
