<svg width="114" height="114" viewBox="0 0 114 114" fill="none" xmlns="http://www.w3.org/2000/svg">
<path d="M92.5977 99.2903L88.3313 86.5186C86.8403 82.0597 83.0365 78.7684 78.3996 77.9263L66.0831 75.6904V74.738C68.2264 73.4969 70.0915 71.8365 71.5769 69.8709H75.2979C78.3461 69.8709 80.8268 67.396 80.8268 64.3548V42.2902C80.8268 29.1104 70.0786 18.387 56.8683 18.387C43.6579 18.387 32.9098 29.1104 32.9098 42.2902V55.1612C32.9098 58.7063 35.4365 61.6721 38.787 62.3635C39.8209 67.6479 43.1308 72.1197 47.6535 74.738V75.6904L35.3351 77.9263C30.7001 78.7684 26.8943 82.0597 25.4052 86.5186L24.6681 88.7269L18.3909 82.4643C17.6722 81.7472 17.6722 80.5796 18.3909 79.8625L25.6706 72.6014L12.0069 58.9692L3.77993 67.1772C1.34354 69.608 0.00186157 72.8404 0.00186157 76.2788C0.00186157 79.7172 1.34354 82.9478 3.77993 85.3786L28.6875 110.229C31.1239 112.66 34.3639 114 37.8102 114C41.2565 114 44.4946 112.66 46.8739 110.284L55.851 102.078L53.0515 99.2903H92.5977ZM77.1408 64.3548C77.1408 65.3698 76.3134 66.1935 75.2979 66.1935H73.7479C74.2824 64.9781 74.6879 63.6965 74.9496 62.3635C75.7383 62.1998 76.4645 61.8872 77.1408 61.4938V64.3548ZM75.2979 58.3275V51.995C76.3944 52.633 77.1408 53.8061 77.1408 55.1612C77.1408 56.5164 76.3944 57.6895 75.2979 58.3275ZM38.4387 58.3275C37.3421 57.6895 36.5957 56.5164 36.5957 55.1612C36.5957 53.8061 37.3421 52.633 38.4387 51.995V58.3275ZM38.4387 45.9677V48.0675C37.7826 48.2385 37.167 48.4959 36.5957 48.8287V42.2902C36.5957 31.1385 45.6907 22.0644 56.8683 22.0644C68.0458 22.0644 77.1408 31.1385 77.1408 42.2902V48.8287C76.5695 48.4959 75.954 48.2366 75.2979 48.0675V45.9677H73.4549C68.0053 45.9677 62.8818 43.8495 59.0264 40.0047L56.8683 37.8516L54.7102 40.0047C50.8547 43.8495 45.7313 45.9677 40.2816 45.9677H38.4387ZM42.1246 58.8387V49.5752C47.659 49.1597 52.8193 46.8815 56.8683 43.0404C60.9172 46.8815 66.0775 49.1615 71.612 49.5752V58.8387C71.612 61.5195 70.8785 64.0275 69.6179 66.1935H56.8683V69.8709H66.588C63.9895 72.1528 60.5929 73.5483 56.8683 73.5483C48.739 73.5483 42.1246 66.9492 42.1246 58.8387ZM62.3972 76.3781V76.4645L56.8683 81.9807L51.3394 76.4645V76.3781C53.0865 76.9261 54.9424 77.2258 56.8683 77.2258C58.7942 77.2258 60.65 76.9261 62.3972 76.3781ZM28.8995 87.6807C29.9629 84.496 32.6812 82.1443 35.993 81.5412L48.8753 79.2061L56.8683 87.1805L64.8593 79.2079L77.7398 81.5431C81.0516 82.1462 83.77 84.496 84.8334 87.6825L87.4854 95.6129H49.3656L42.1872 88.4511L34.2109 95.6497C33.5161 96.3465 32.3016 96.3465 31.605 95.6497L27.5799 91.6339L28.8995 87.6807ZM12.0051 64.1691L20.4569 72.6014L18.4554 74.5982L10.0036 66.1659L12.0051 64.1691ZM44.3214 107.633C42.5816 109.365 40.2669 110.323 37.8065 110.323C35.3462 110.323 33.0314 109.365 31.2898 107.629L6.38219 82.7805C4.64244 81.0448 3.6841 78.7354 3.6841 76.2807C3.6841 73.8242 4.64244 71.5147 6.38219 69.779L7.39582 68.7677L15.8476 77.2L15.7813 77.2662C13.6269 79.4175 13.6269 82.9166 15.7813 85.0679L28.9972 98.2533C30.0421 99.294 31.4299 99.8695 32.9079 99.8695C34.386 99.8695 35.7737 99.2958 36.7505 98.3176L36.8887 98.1944L45.3792 106.665L44.3214 107.633ZM48.0995 104.176L39.6274 95.7232L42.0619 93.5278L50.5193 101.966L48.0995 104.176Z" fill="white"/>
<path d="M108.471 0H82.6697C79.6214 0 77.1408 2.47491 77.1408 5.51614V20.2258C77.1408 23.2671 79.6214 25.742 82.6697 25.742H87.5922L85.6866 36.8312L103.471 25.742H108.471C111.519 25.742 114 23.2671 114 20.2258V5.51614C114 2.47491 111.519 0 108.471 0ZM110.314 20.2258C110.314 21.239 109.487 22.0645 108.471 22.0645H102.413L90.7087 29.3624L91.9637 22.0645H82.6697C81.6542 22.0645 80.8267 21.239 80.8267 20.2258V5.51614C80.8267 4.50301 81.6542 3.67742 82.6697 3.67742H108.471C109.487 3.67742 110.314 4.50301 110.314 5.51614V20.2258Z" fill="white"/>
<path d="M106.628 7.35486H84.5127V11.0323H106.628V7.35486Z" fill="white"/>
<path d="M99.2564 14.71H84.5127V18.3874H99.2564V14.71Z" fill="white"/>
<path d="M106.628 14.71H102.942V18.3874H106.628V14.71Z" fill="white"/>
<path d="M56.8682 5.5162C32.7881 5.5162 12.0456 22.1345 6.65309 45.3151L3.16068 39.5066L0 41.3987L6.47801 52.168L17.2722 45.7049L15.3758 42.5515L10.3814 45.5413C15.6043 24.3354 34.7177 9.19363 56.8682 9.19363C61.7097 9.19363 66.4866 9.91073 71.0664 11.3265L72.1574 7.81459C67.2238 6.28846 62.0801 5.5162 56.8682 5.5162Z" fill="white"/>
<path d="M113.104 40.7124L102.31 34.2493L95.8335 45.0205L98.9942 46.9125L102.219 41.549C103.917 46.5043 104.785 51.6877 104.785 56.9997C104.785 67.9345 100.988 78.6248 94.0975 87.0994L96.9596 89.4162C104.383 80.2888 108.471 68.7748 108.471 56.9997C108.471 51.3751 107.562 45.8829 105.791 40.6241L111.208 43.8658L113.104 40.7124Z" fill="white"/>
</svg>
